<svg id="Layer_1" enable-background="new 0 0 512 512" viewBox="0 0 512 512" xmlns="http://www.w3.org/2000/svg"><g id="_x30_1_mail_00000175281773072973253860000013128960151626208913_"><g><path d="m512 180.71v210.82h-30.12v30.12h-30.12v30.11h-391.52v-30.11h-30.12v-30.12h-30.12v-210.82h30.12v-30.12h30.12v-30.12h90.35v-30.12h30.12v-30.11h60.23v30.11h30.12v-30.11h60.23v30.11h30.12v30.12h90.35v30.12h30.12v30.12z"/></g><g><g><g><path d="m331.29 120.47v30.12h-30.11v30.12h-30.12v30.11h-30.12v-30.11h-30.12v-30.12h-30.11v-31.531l30.115-13.649 30.115 15.06 15.06 15.06 15.06-15.06 30.115-15.06z" fill="#ff6379"/></g></g><g fill="#ffe8cb"><path d="m451.76 150.59v30.12h-30.11v30.11h-30.12v30.12h-30.12v30.12h-30.12v30.12h-150.58v-30.12h-30.12v-30.12h-30.12v-30.12h-30.12v-30.11h-30.11v-30.12h120.47v30.12h30.11v30.11h30.12v30.12h30.12v-30.12h30.12v-30.11h30.11v-30.12z"/><path d="m120.47 301.18v30.11h-30.12v30.12h-30.11l-15.665-15.06v-120.465l15.665-15.065 30.11 30.12 30.12 30.12 15.06 15.06z"/><g><path d="m465.563 220.363v125.987l-13.803 15.06h-30.11v-30.12h-30.12v-30.11l-15.06-15.06 15.06-15.06 30.12-30.12 30.11-30.12z"/><path d="m399.717 406.311h-294.307l-15.06-14.781 30.12-30.12 30.12-30.12 15.06-15.055 15.06 15.055 16.449 15.06h120.902l13.229-15.06 15.06-15.055 15.06 15.055 30.12 30.12 30.12 30.12z"/></g></g></g><g><g fill="#ffa6b2"><path d="m271.06 90.35h60.23v30.12h-60.23z"/><path d="m180.71 90.35h60.23v30.12h-60.23z"/><path d="m240.94 120.47h30.12v30.12h-30.12z"/></g><g fill="#ecc372"><path d="m120.47 271.06h30.12v30.12h-30.12z"/><path d="m90.35 240.94h30.12v30.12h-30.12z"/><path d="m90.35 210.82v30.12h-30.11v150.59h-30.12v-210.82h30.12v30.11z"/><path d="m481.88 180.71v210.82h-30.12v-150.59h-30.11v-30.12h30.11v-30.11z"/><path d="m391.53 240.94h30.12v30.12h-30.12z"/><path d="m361.41 271.06h30.12v30.12h-30.12z"/><path d="m180.71 331.29h150.58v30.12h-150.58z"/><path d="m150.59 301.18h30.12v30.11h-30.12z"/><path d="m120.47 331.29h30.12v30.12h-30.12z"/><path d="m331.29 301.18h30.12v30.11h-30.12z"/><path d="m361.41 331.29h30.12v30.12h-30.12z"/><path d="m451.76 391.53v30.12h-391.52v-30.12h30.11v-30.12h30.12v30.12h271.06v-30.12h30.12v30.12z"/></g></g></g><g/><g/><g/><g/><g/><g/><g/><g/><g/><g/><g/><g/><g/><g/><g/></svg>