<?xml version="1.0" encoding="iso-8859-1"?>
<!-- Generator: Adobe Illustrator 19.0.0, SVG Export Plug-In . SVG Version: 6.00 Build 0)  -->
<svg version="1.1" id="Layer_1" xmlns="http://www.w3.org/2000/svg" xmlns:xlink="http://www.w3.org/1999/xlink" x="0px" y="0px"
	 viewBox="0 0 512 512" style="enable-background:new 0 0 512 512;" xml:space="preserve">
<polygon style="fill:#F490C0;" points="400.696,33.391 400.696,0 111.304,0 111.304,33.391 77.913,33.391 77.913,478.609 
	111.304,478.609 111.304,512 400.696,512 400.696,478.609 434.087,478.609 434.087,33.391 "/>
<rect x="144.696" y="66.783" style="fill:#004FAC;" width="222.609" height="311.652"/>
<g>
	<rect x="144.696" y="133.565" style="fill:#FFFFFF;" width="66.783" height="33.391"/>
	<rect x="211.478" y="66.783" style="fill:#FFFFFF;" width="33.391" height="66.783"/>
	<rect x="200.348" y="311.652" style="fill:#FFFFFF;" width="33.391" height="66.783"/>
	<rect x="233.739" y="278.261" style="fill:#FFFFFF;" width="33.391" height="33.391"/>
	<rect x="300.522" y="211.478" style="fill:#FFFFFF;" width="66.783" height="33.391"/>
	<rect x="267.13" y="244.87" style="fill:#FFFFFF;" width="33.391" height="33.391"/>
</g>
<rect x="77.913" y="33.391" width="33.391" height="445.217"/>
<rect x="400.696" y="33.391" width="33.391" height="445.217"/>
<rect x="111.304" width="289.391" height="33.391"/>
<path d="M144.696,66.783v311.652h222.609V66.783H144.696z M333.913,345.043H178.087v-244.87h155.826V345.043z"/>
<rect x="111.304" y="478.609" width="289.391" height="33.391"/>
<rect x="233.739" y="411.826" width="44.522" height="33.391"/>
<g>
</g>
<g>
</g>
<g>
</g>
<g>
</g>
<g>
</g>
<g>
</g>
<g>
</g>
<g>
</g>
<g>
</g>
<g>
</g>
<g>
</g>
<g>
</g>
<g>
</g>
<g>
</g>
<g>
</g>
</svg>
